<svg id="Lager_1" data-name="Lager 1" xmlns="http://www.w3.org/2000/svg" viewBox="0 0 545.96 91.47"><defs><style>.cls-1{fill:#e30613;}.cls-2{fill:#ea5153;}.cls-3{fill:#1d1d1b;}.cls-4{fill:#fff;}</style></defs><title>logo</title><rect class="cls-1" y="0.01" width="80.81" height="91.45"/><rect class="cls-2" x="32.68" width="2.89" height="91.45"/><rect class="cls-2" x="37.42" width="2.29" height="91.45"/><rect class="cls-2" x="48.06" width="3.85" height="91.45"/><rect class="cls-2" x="55.81" width="6.99" height="91.45"/><rect class="cls-2" x="68.61" width="2.41" height="91.45"/><rect class="cls-2" x="9.88" width="6.99" height="91.45"/><rect class="cls-2" x="21.68" width="2.41" height="91.45"/><path class="cls-3" d="M131.37,95.06v5.87h-6.71V41.87h7.08v21.5c1.22-2.82,4.8-5.79,11.27-5.79,8.61,0,13.94,5.94,13.94,16.61V84.85c0,10.89-5.33,16.76-13.94,16.76C136.1,101.61,133.2,98.64,131.37,95.06Zm18.43-11.12V75.18c0-7.39-3-11.66-9.07-11.66-5.64,0-9,3.88-9,11.27v9.14c0,7.7,3.2,11.81,9,11.81C146.68,95.75,149.81,91.56,149.81,83.94Z" transform="translate(-24.23 -25.69)"/><path class="cls-3" d="M166.45,117.15l5.78-16.45L157.6,58.11h7.93L176,91.1l10.52-33h7.77l-20.41,59h-7.39Z" transform="translate(-24.23 -25.69)"/><path class="cls-3" d="M195.07,84.85V74.19c0-10.44,5.18-16.45,13.18-16.45,6.48,0,11,3,12.34,6.32V58.11h6.7v43.19c0,10.28-3.58,15.85-16,15.85s-15.69-6.25-15.69-12.8h6.93c0,3.66,2.36,7.16,8.76,7.16s8.91-3,8.91-8.76V95.06c-1.21,2.89-4.72,6.55-11.27,6.55C200.41,101.61,195.07,95.67,195.07,84.85Zm25.14-.3V73.66c0-6.78-3.5-10.21-9-10.21-5.87,0-9,4-9,11.65v9.07c0,7.77,3,11.81,9,11.81C216.86,96,220.21,92.17,220.21,84.55Z" transform="translate(-24.23 -25.69)"/><path class="cls-3" d="M232.1,84.85V74.19c0-10.44,5.18-16.45,13.18-16.45,6.48,0,11,3,12.34,6.32V58.11h6.7v43.19c0,10.28-3.58,15.85-16,15.85s-15.69-6.25-15.69-12.8h6.93c0,3.66,2.36,7.16,8.76,7.16s8.92-3,8.92-8.76V95.06C256,98,252.52,101.61,246,101.61,237.44,101.61,232.1,95.67,232.1,84.85Zm25.14-.3V73.66c0-6.78-3.5-10.21-9-10.21-5.86,0-9,4-9,11.65v9.07c0,7.77,3,11.81,9,11.81C253.89,96,257.24,92.17,257.24,84.55Z" transform="translate(-24.23 -25.69)"/><path class="cls-3" d="M279.53,100.93h-9.91V41.64h9.91V62.23a11.94,11.94,0,0,1,9.83-4.65c7,0,12.42,3.89,12.42,15.39v28h-10V76.78c0-7.08-1.07-10.21-6.17-10.21-4.19,0-6.09,2.21-6.09,7.69v26.66Z" transform="translate(-24.23 -25.69)"/><path class="cls-3" d="M338.07,87.21v0.3c0,7.85-5.94,14.17-16,14.17S306,95.21,306,84.93V74.49c0-10.43,5.87-16.91,16.07-16.91s16,6,16,16.53v8.38H315.9v4.65a6.29,6.29,0,0,0,6.17,6.4c3.35,0,6.1-1.9,6.1-5.41V87.21h9.9ZM315.9,75.48h12.27V73.43c0-5.71-2.36-7.62-6.1-7.62-3.5,0-6.17,2-6.17,6.55v3.13Z" transform="translate(-24.23 -25.69)"/><path class="cls-3" d="M352.39,100.93h-9.9V58.11h9.3v4.42c0.53-1.14,3-4.88,8.83-4.88,4.34,0,8,1.83,10.06,5.87a11.58,11.58,0,0,1,10.52-5.87c7.16,0,11.35,4.65,11.35,15v28.26h-10V72.28c0-4.26-2.29-5.86-5-5.86-2.59,0-5,1.67-5,5.71v28.79h-10V72.28c0-4.19-2.13-5.86-5.1-5.86-2.59,0-5,1.6-5,5.71v28.79Z" transform="translate(-24.23 -25.69)"/><path class="cls-3" d="M407.25,100.93h-9.9V58.11h9.3v4.42c0.53-1.14,3-4.88,8.83-4.88,4.34,0,8,1.83,10.06,5.87A11.58,11.58,0,0,1,436,57.66c7.16,0,11.35,4.65,11.35,15v28.26h-10V72.28c0-4.26-2.28-5.86-5-5.86-2.59,0-5,1.67-5,5.71v28.79h-10V72.28c0-4.19-2.13-5.86-5.1-5.86-2.59,0-5,1.6-5,5.71v28.79Z" transform="translate(-24.23 -25.69)"/><path class="cls-3" d="M451.55,85.77V73.35c0-11,5.18-15.77,12.65-15.77,6.25,0,9.52,4,10.13,5.33v-4.8h9.29v42.81h-9.29V96.2c-0.61,1.45-3.88,5.41-10.13,5.41C456.58,101.61,451.55,96.74,451.55,85.77ZM473.72,85V74c0-5.18-2.59-7.47-6.09-7.47-3.66,0-6.1,2.36-6.1,7.62V85c0,5.34,2.44,7.69,6.1,7.69S473.72,90.26,473.72,85Z" transform="translate(-24.23 -25.69)"/><path class="cls-3" d="M494.14,101.54a6,6,0,0,1-6-6A6,6,0,1,1,494.14,101.54Z" transform="translate(-24.23 -25.69)"/><path class="cls-3" d="M534.68,72H525c0-4.8-2.59-6.1-6.24-6.1-3.43,0-5.41,1.52-5.41,4.11,0,8,21.79,4.12,21.79,19,0,8.3-5.64,13-16,13-10.21,0-16.53-5.64-16.53-15.16h9.91c0,4.72,2.81,6.7,6.62,6.7s6-2.13,6-4.57c0-7.47-21.56-3.81-21.56-18.89,0-7.84,5.64-12.64,15.08-12.64C529,57.35,534.68,62.23,534.68,72Z" transform="translate(-24.23 -25.69)"/><path class="cls-3" d="M570.2,87.21v0.3c0,7.85-5.95,14.17-16,14.17-10.21,0-16.08-6.48-16.08-16.76V74.49c0-10.43,5.87-16.91,16.08-16.91,10,0,16,6,16,16.53v8.38H548v4.65a6.29,6.29,0,0,0,6.18,6.4c3.35,0,6.09-1.9,6.09-5.41V87.21h9.91ZM548,75.48h12.27V73.43c0-5.71-2.36-7.62-6.09-7.62-3.51,0-6.18,2-6.18,6.55v3.13Z" transform="translate(-24.23 -25.69)"/><path class="cls-4" d="M56.92,66h0.17c3.68-4.85,8.62-8.44,15.62-8.44,7.9,0,12.74,4.95,12.74,12.57V91.4c0,9.39-11.74,9.51-11.74,9.51H68.26V95h3c2.51,0,3.59-1,3.59-3.58V70.86c0-4.58-3.14-6.28-7.89-6.28S56.92,69.51,56.92,77.4v14C56.92,94,58,95,60.51,95h1.14v5.92H41.09V95h1.65c2.51,0,3.59-1,3.59-3.58v-40c0-2.6-1.08-3.59-3.59-3.59H41.09V41.86H56.92V66Z" transform="translate(-24.23 -25.69)"/><path class="cls-4" d="M90.92,99a2.64,2.64,0,0,1-.27.77,2,2,0,0,1-.51.62,2.3,2.3,0,0,1-.81.4,4.61,4.61,0,0,1-2.29,0,2.39,2.39,0,0,1-.81-0.4,2,2,0,0,1-.5-0.62A2.77,2.77,0,0,1,85.45,99a5.16,5.16,0,0,1,0-1.77,2.77,2.77,0,0,1,.28-0.77,2,2,0,0,1,.5-0.62A2.51,2.51,0,0,1,87,95.4a4.13,4.13,0,0,1,1.14-.14,3.78,3.78,0,0,1,1.37.22,1.9,1.9,0,0,1,.87.62,2.53,2.53,0,0,1,.44.88,4.21,4.21,0,0,1,.13,1.1A4.66,4.66,0,0,1,90.92,99Zm-0.7-1.78a2.09,2.09,0,0,0-.33-0.7A1.44,1.44,0,0,0,89.22,96a2.93,2.93,0,0,0-1-.17,2.8,2.8,0,0,0-1,.17,1.48,1.48,0,0,0-.66.48,2,2,0,0,0-.34.7,3.48,3.48,0,0,0-.1.89,3.55,3.55,0,0,0,.1.89,2.12,2.12,0,0,0,.34.7,1.48,1.48,0,0,0,.66.48,2.9,2.9,0,0,0,1,.17,3,3,0,0,0,1-.17,1.46,1.46,0,0,0,.66-0.48,2.1,2.1,0,0,0,.33-0.7A4,4,0,0,0,90.22,97.18Zm-1.58,2.35-1-1.05v1.05H87V96.64h1.13a2.49,2.49,0,0,1,.7.08,0.83,0.83,0,0,1,.4.24,0.89,0.89,0,0,1,.17.29,1,1,0,0,1,0,.32,0.79,0.79,0,0,1-1,.82H88.25l1.27,1.13H88.64Zm-0.45-2.39H87.65V98h0.54a1.49,1.49,0,0,0,.35,0,0.38,0.38,0,0,0,.2-0.11,0.37,0.37,0,0,0,.07-0.14,0.45,0.45,0,0,0,0-.14C88.84,97.29,88.62,97.14,88.19,97.14Z" transform="translate(-24.23 -25.69)"/></svg>