<?xml version="1.0" encoding="UTF-8" standalone="no"?>
<svg
   xmlns:dc="http://purl.org/dc/elements/1.1/"
   xmlns:cc="http://creativecommons.org/ns#"
   xmlns:rdf="http://www.w3.org/1999/02/22-rdf-syntax-ns#"
   xmlns:svg="http://www.w3.org/2000/svg"
   xmlns="http://www.w3.org/2000/svg"
   xmlns:sodipodi="http://sodipodi.sourceforge.net/DTD/sodipodi-0.dtd"
   xmlns:inkscape="http://www.inkscape.org/namespaces/inkscape"
   version="1.1"
   id="Lager_1"
   x="0px"
   y="0px"
   width="944"
   height="253"
   viewBox="0 0 943.99998 252.99999"
   enable-background="new 0 0 841.89 595.275"
   xml:space="preserve">
<path
   style="fill:#ffdf1c"
   id="path238"
   d="m 943.99999,227.46048 c 0,14.04887 -11.49369,25.5395 -25.5395,25.5395 H 25.539505 C 11.490641,252.99998 1.8019999e-6,241.50629 1.8019999e-6,227.46048 V 25.540884 C 1.8019999e-6,11.49202 11.493694,0.0013807 25.539505,0.0013807 H 918.46049 c 14.04886,0 25.5395,11.4936923 25.5395,25.5395033 V 227.46048 z" /><path
   style="fill:#007ac2"
   id="path242"
   d="M 102.93342,99.002825 V 86.172018 c 0,-13.981702 -6.413878,-19.937663 -13.74664,-19.937663 -11.460112,0 -15.12344,5.955961 -15.12344,18.334957 v 83.868848 c 0,12.379 3.663328,18.33496 15.12344,18.33496 10.312268,0 13.74664,-5.95596 13.74664,-16.72615 v -19.93766 h 28.41827 v 19.01878 c 0,23.37203 -13.74969,42.39386 -42.16491,42.39386 -29.788964,0 -43.541709,-19.01878 -43.541709,-42.39386 V 83.876333 c 0,-23.372034 13.752745,-42.393866 43.541709,-42.393866 28.41522,0 42.16491,20.624538 42.16491,45.373373 v 12.146985 h -28.41827 z" /><path
   style="fill:#007ac2"
   id="path244"
   d="M 148.21216,209.22932 V 43.772047 h 28.41826 V 209.22932 h -28.41826 z" /><path
   style="fill:#007ac2"
   id="path246"
   d="M 217.51927,68.523935 H 190.01684 V 43.7751 h 83.41398 V 68.523935 H 245.92838 V 209.23237 H 217.51622 V 68.523935 z" /><path
   style="fill:#007ac2"
   id="path248"
   d="M 341.49546,209.22932 H 313.07719 V 140.48086 L 278.70296,43.768994 h 28.87313 L 327.5107,106.7935 h 0.45792 L 346.9874,43.768994 h 28.87618 l -34.37423,96.711866 v 68.74846 z" /><path
   style="fill:#007ac2"
   id="path250"
   d="M 540.02037,209.22932 H 511.60821 V 43.772047 h 39.87227 c 31.85264,0 48.12392,13.523787 48.12392,48.813848 0,26.580495 -10.31532,37.353735 -19.94071,41.706995 l 24.06196,74.93643 h -28.86703 l -20.16967,-68.5195 c -3.66028,0.45791 -9.6254,0.68687 -14.66553,0.68687 v 67.83263 z m 0,-91.20772 h 10.08331 c 15.35545,0 21.08551,-5.73005 21.08551,-25.435705 0,-19.711758 -5.73006,-25.435708 -21.08551,-25.435708 H 540.02037 V 118.0216 z" /><path
   style="fill:#007ac2"
   id="path252"
   d="m 615.57041,83.876333 c 0,-23.372034 13.74358,-42.393866 43.53255,-42.393866 29.79812,0 43.54171,19.018779 43.54171,42.393866 v 85.251757 c 0,23.37203 -13.74359,42.39386 -43.54171,42.39386 -29.78897,0 -43.53255,-19.01878 -43.53255,-42.39386 V 83.876333 z m 28.40606,84.558777 c 0,12.37899 3.66943,18.33495 15.12344,18.33495 11.46316,0 15.12954,-5.95596 15.12954,-18.33495 V 84.566259 c 0,-12.378996 -3.66638,-18.334957 -15.12954,-18.334957 -11.45401,0 -15.12344,5.955961 -15.12344,18.334957 v 83.868851 z" /><path
   style="fill:#007ac2"
   id="path254"
   d="m 772.76993,84.566259 c -1.14479,-14.207607 -8.71262,-18.334957 -15.12344,-18.334957 -9.16748,0 -14.20761,5.955961 -14.20761,16.271283 0,28.183205 57.74932,41.706995 57.74932,86.622445 0,27.27348 -18.33496,42.39387 -44.91546,42.39387 -26.35765,0 -41.48109,-21.08246 -42.62588,-45.83434 l 27.04452,-3.89229 c 1.14174,16.72615 7.78763,24.97779 16.95511,24.97779 9.85435,0 16.49413,-5.27214 16.49413,-15.12038 0,-32.76847 -57.74016,-41.48109 -57.74016,-88.918137 0,-26.354594 16.03928,-41.249076 43.99658,-41.249076 23.14002,0 36.88971,16.729199 39.41435,40.104285 l -27.04146,2.979507 z" /><path
   style="fill:#007ac2"
   id="path256"
   d="m 869.93055,84.566259 c -1.14479,-14.207607 -8.70956,-18.334957 -15.12344,-18.334957 -9.16748,0 -14.20761,5.955961 -14.20761,16.271283 0,28.183205 57.74932,41.706995 57.74932,86.622445 0,27.27348 -18.33496,42.39387 -44.91241,42.39387 -26.35764,0 -41.48108,-21.08246 -42.62587,-45.83434 l 27.04147,-3.89229 c 1.14479,16.72615 7.78762,24.97779 16.9551,24.97779 9.85741,0 16.49719,-5.27214 16.49719,-15.12038 0,-32.76847 -57.74321,-41.48109 -57.74321,-88.918137 0,-26.354594 16.03927,-41.249076 43.99962,-41.249076 23.14002,0 36.88972,16.729199 39.41131,40.104285 l -27.04147,2.979507 z" /><path
   style="fill:#007ac2"
   id="path258"
   d="M 491.81708,97.445911 V 83.876333 c 0,-14.332772 -5.19277,-27.004835 -16.06064,-34.676455 -6.85653,-4.847804 -15.9538,-7.714358 -27.48107,-7.714358 -0.75709,0 -1.45923,0.06105 -2.19495,0.08853 -11.50895,0.375491 -20.50853,3.672487 -27.11473,9.020946 -8.06848,7.293076 -12.85523,18.698238 -12.85523,33.281337 v 85.251757 c 0,21.21982 11.37769,38.8038 34.38339,41.86878 2.33537,0.31749 4.75011,0.52508 7.3236,0.52508 0.0733,0 0.14043,-0.006 0.2137,-0.006 28.26868,-0.10685 42.41218,-20.68255 42.41218,-45.36727 v -38.49242 h -35.50986 v 22.45315 h 8.46229 v 5.49804 c 0,24.34587 -4.8936,30.93376 -15.72789,31.14134 -1.48976,-0.0244 -2.84214,-0.1679 -4.0663,-0.40601 -5.20192,-1.35238 -9.07589,-6.17577 -9.07589,-17.67251 V 83.644322 c 0,-10.43438 3.39163,-17.254276 13.02923,-17.385545 0.1618,-0.0061 0.31749,-0.01832 0.47929,-0.01832 11.2861,0.08243 15.36156,6.517672 15.36156,22.908012 v 8.300492 h 28.42132 z" />
</svg>